:SAMPLES-PER-SECOND 30
:FULLY-SPECIFIED
:DEGREES
254
root  -51.138 40.9036 4.77122 172.425 -82.981 -177.262
RightUpLeg  -11.6049 -12.6162 -8.65326
RightLeg  22.2621 -2.70605 -1.44889
RightFoot  -0.672068 -0.961263 10.2199
RightToes  0.000481921 0.542163 -0.142578
Spine  6.01902 -4.1893 -14.4344
Spine1  7.46617 -9.77104 18.3723
HEad  15.1256 1.50892 6.40408
LeftShoulder1  9.49171 -13.7701 -47.9676
LeftArm  -6.27082 -5.61363 -22.1675
LeftForeArm  36.7472 -34.1431 -5.48929
LeftHand  -0.25398 0.0180481 5.50724
RightShoulder  4.03972 6.76634 33.3866
RightArm  -4.68047 -25.2624 37.2808
RightForeArm  14.1745 16.1864 5.27017
RightHand  -0.644014 1.77162 -10.6223
LeftUpLeg  0.426071 7.01329 -0.880303
LeftLeg  9.82017 19.1937 -3.97426
LeftFoot  -7.60832 -0.0332862 2.42719
LeftToes  1.06246e-005 4.65868e-005 -8.65513e-006
255
root  -51.466 40.8688 4.85289 172.517 -83.1435 -177.421
RightUpLeg  -12.3546 -14.2123 -8.22358
RightLeg  17.6806 -0.259944 -0.253922
RightFoot  0.317351 -1.06743 10.444
RightToes  0.000481921 0.542163 -0.142578
Spine  6.70077 -4.08998 -14.5077
Spine1  7.22961 -9.82139 18.8573
HEad  14.4963 1.30134 7.2586
LeftShoulder1  9.45416 -13.7333 -47.8775
LeftArm  -5.15041 -5.57817 -22.7429
LeftForeArm  37.5313 -34.3733 -5.50356
LeftHand  -0.25398 0.0180481 5.50724
RightShoulder  4.07367 6.77153 33.6971
RightArm  -5.4221 -24.8654 37.557
RightForeArm  14.4235 16.1541 5.20638
RightHand  -0.597395 1.51132 -10.2134
LeftUpLeg  0.825416 7.35247 -0.988795
LeftLeg  10.2948 18.6804 -3.92909
LeftFoot  -8.26719 -0.0169722 2.48532
LeftToes  1.06246e-005 4.65868e-005 -8.65513e-006
256
root  -51.7945 40.8322 4.90838 172.909 -83.2128 -177.99
RightUpLeg  -12.9059 -14.4994 -8.13662
RightLeg  13.3783 1.92368 0.979032
RightFoot  1.64716 -1.2572 11.1089
RightToes  0.000481921 0.542163 -0.142578
Spine  7.36278 -3.75987 -14.2084
Spine1  7.08789 -9.5112 18.8604
HEad  13.9151 0.717301 7.90825
LeftShoulder1  9.52796 -13.8535 -47.9169
LeftArm  -3.58791 -5.42689 -23.4749
LeftForeArm  37.7795 -33.7929 -5.34705
LeftHand  -0.25398 0.0180481 5.50724
RightShoulder  4.01604 6.54279 34.0207
RightArm  -5.42523 -24.2955 37.7604
RightForeArm  14.2309 16.647 5.08231
RightHand  -0.549411 1.18478 -9.84199
LeftUpLeg  1.34096 7.58545 -1.14463
LeftLeg  10.7659 18.4196 -3.76492
LeftFoot  -8.89007 0.00133763 2.43542
LeftToes  1.06246e-005 4.65868e-005 -8.65513e-006
257
root  -52.1515 40.8046 4.94084 173.33 -83.3566 -178.606
RightUpLeg  -13.2094 -12.9013 -8.63705
RightLeg  9.57108 2.2924 2.13637
RightFoot  2.61856 -1.44004 11.8724
RightToes  0.000481921 0.542163 -0.142578
Spine  7.80197 -3.4802 -13.7901
Spine1  6.97913 -9.19978 18.7625
HEad  13.5767 0.0228122 8.27503
LeftShoulder1  9.73316 -14.0826 -48.317
LeftArm  -1.65794 -4.73049 -24.0658
LeftForeArm  37.3594 -32.6127 -5.08426
LeftHand  -0.25398 0.0180481 5.50724
RightShoulder  4.01029 6.51911 34.0581
RightArm  -4.68746 -23.7523 37.9183
RightForeArm  13.6516 17.2892 4.99402
RightHand  -0.53287 1.01469 -9.78441
LeftUpLeg  2.01302 7.5487 -1.33283
LeftLeg  11.0089 18.3666 -3.57745
LeftFoot  -9.44764 0.0192525 2.27121
LeftToes  1.06246e-005 4.65868e-005 -8.65513e-006
258
root  -52.534 40.7867 4.94093 173.651 -83.6887 -179.078
RightUpLeg  -13.4702 -11.4706 -9.16368
RightLeg  6.49646 1.75514 2.88369
RightFoot  3.14179 -1.56313 12.4275
RightToes  0.000481921 0.542163 -0.142578
Spine  8.15489 -3.50378 -13.5413
Spine1  6.82474 -9.20987 18.7272
HEad  13.4621 -0.2031 8.48202
LeftShoulder1  9.7906 -14.0479 -48.7016
LeftArm  0.417298 -3.44359 -24.6413
LeftForeArm  36.5293 -30.9911 -4.74773
LeftHand  -0.25398 0.0180481 5.50724
RightShoulder  4.21944 7.05772 33.9997
RightArm  -3.42034 -23.0758 37.9003
RightForeArm  12.9782 17.726 4.98936
RightHand  -0.579143 1.2553 -10.2568
LeftUpLeg  2.7875 7.36803 -1.46794
LeftLeg  11.0366 18.2029 -3.46594
LeftFoot  -9.99356 0.036222 2.02512
LeftToes  1.06246e-005 4.65868e-005 -8.65513e-006
259
root  -52.9224 40.7661 4.89355 174.314 -84.1549 -179.828
RightUpLeg  -13.8535 -10.8479 -9.51763
RightLeg  4.40354 0.475064 3.31883
RightFoot  3.75332 -1.6456 12.5705
RightToes  0.000481921 0.542163 -0.142578
Spine  8.6292 -3.65177 -13.4326
Spine1  6.46098 -9.31838 18.6334
HEad  13.4225 -0.0990205 8.60812
LeftShoulder1  9.70385 -13.7944 -48.9781
LeftArm  2.58739 -1.80136 -25.2909
LeftForeArm  35.5849 -28.9005 -4.32395
LeftHand  -0.25398 0.0180481 5.50724
RightShoulder  4.52108 7.79257 34.0723
RightArm  -2.06172 -22.1469 37.6763
RightForeArm  12.3894 18.0579 4.99707
RightHand  -0.642791 1.55069 -10.9191
LeftUpLeg  3.5108 7.23994 -1.5314
LeftLeg  11.0727 17.8244 -3.41197
LeftFoot  -10.5627 0.0515172 1.75877
LeftToes  1.06246e-005 4.65868e-005 -8.65513e-006
260
root  -53.3181 40.7306 4.79827 175.883 -84.6532 178.544
RightUpLeg  -14.396 -10.8546 -9.71486
RightLeg  3.49474 -1.15472 3.53182
RightFoot  4.33796 -1.67286 12.3231
RightToes  0.000481921 0.542163 -0.142578
Spine  9.00784 -3.59589 -13.1611
Spine1  6.17632 -9.13104 18.2192
HEad  13.2258 -0.33026 8.62936
LeftShoulder1  9.77069 -13.7391 -49.472
LeftArm  5.23521 -0.142841 -25.8598
LeftForeArm  34.2436 -26.2487 -3.78611
LeftHand  -0.25398 0.0180481 5.50724
RightShoulder  4.66185 8.10146 34.22
RightArm  -1.05869 -20.9488 37.3808
RightForeArm  11.6803 18.5484 4.93682
RightHand  -0.646007 1.36911 -11.2456
LeftUpLeg  4.13247 7.23466 -1.58504
LeftLeg  11.2747 17.3904 -3.32913
LeftFoot  -11.1521 0.0644278 1.6044
LeftToes  1.06246e-005 4.65868e-005 -8.65513e-006
261
root  -53.7413 40.6829 4.67103 178.226 -85.2212 176.089
RightUpLeg  -14.8986 -11.1438 -9.79457
RightLeg  3.66084 -2.44801 3.47136
RightFoot  4.3581 -1.60948 11.8511
RightToes  0.000481921 0.542163 -0.142578
Spine  8.90797 -3.34629 -12.5289
Spine1  6.59511 -8.68258 17.3276
HEad  12.7101 -1.09448 8.54901
LeftShoulder1  10.0631 -13.9987 -50.1947
LeftArm  8.00261 1.29194 -26.2997
LeftForeArm  32.7375 -23.0297 -3.45795
LeftHand  -0.25398 0.0180481 5.50724
RightShoulder  4.60748 7.94044 34.3083
RightArm  -0.5819 -19.4392 37.1378
RightForeArm  10.7096 19.1143 4.84836
RightHand  -0.616735 0.990169 -11.341
LeftUpLeg  4.79241 7.31349 -1.64876
LeftLeg  11.5883 16.9335 -3.16049
LeftFoot  -11.7628 0.0767625 1.63487
LeftToes  1.06246e-005 4.65868e-005 -8.65513e-006
262
root  -54.2007 40.6339 4.51858 -178.692 -86.0039 172.841
RightUpLeg  -15.0723 -11.4401 -9.83783
RightLeg  4.23844 -3.03962 3.23596
RightFoot  4.18455 -1.50994 11.2555
RightToes  0.000481921 0.542163 -0.142578
Spine  8.41466 -3.15023 -11.7016
Spine1  7.70042 -8.28012 16.1243
HEad  11.8798 -1.98412 8.51152
LeftShoulder1  10.3237 -14.2684 -50.7101
LeftArm  7.85872 2.62467 -26.731
LeftForeArm  33.9698 -19.3242 -4.40232
LeftHand  -0.25398 0.0180481 5.50724
RightShoulder  4.5379 7.74456 34.3894
RightArm  -0.432265 -17.6873 36.8748
RightForeArm  9.75518 19.42 4.82435
RightHand  -0.667216 1.24713 -11.797
LeftUpLeg  5.57588 7.41233 -1.67087
LeftLeg  11.9001 16.2332 -2.92006
LeftFoot  -12.4332 0.0904646 1.66251
LeftToes  1.06246e-005 4.65868e-005 -8.65513e-006
263
root  -54.6951 40.5822 4.32661 -172.74 -86.9994 166.803
RightUpLeg  -14.8407 -11.58 -9.98022
RightLeg  4.48558 -3.13911 3.08371
RightFoot  4.39485 -1.45544 10.7216
RightToes  0.000481921 0.542163 -0.142578
Spine  7.9995 -3.06178 -10.9951
Spine1  8.60381 -7.96018 14.9239
HEad  11.0054 -2.71114 8.58978
LeftShoulder1  10.4074 -14.3624 -50.8489
LeftArm  4.32872 4.34979 -27.1653
LeftForeArm  38.1777 -15.5084 -6.01344
LeftHand  -0.25398 0.0180481 5.50724
RightShoulder  4.56432 7.74767 34.6097
RightArm  -0.310804 -16.0331 36.3752
RightForeArm  9.10011 19.3681 4.8751
RightHand  -0.818649 2.19829 -12.7147
LeftUpLeg  6.33844 7.50544 -1.61754
LeftLeg  12.2171 15.158 -2.67865
LeftFoot  -13.2002 0.102292 1.43089
LeftToes  1.06246e-005 4.65868e-005 -8.65513e-006
264
root  -55.237 40.5155 4.08218 -157.977 -87.9319 152.15
RightUpLeg  -14.3073 -11.5843 -10.259
RightLeg  4.2208 -3.1988 3.08431
RightFoot  4.28265 -1.42515 10.5762
RightToes  0.000481921 0.542163 -0.142578
Spine  7.80054 -2.91549 -10.4868
Spine1  8.78337 -7.503 13.7938
HEad  10.3151 -3.41844 8.79027
LeftShoulder1  10.4058 -14.3672 -50.832
LeftArm  0.574865 6.74448 -27.4555
LeftForeArm  42.3236 -12.1805 -7.00284
LeftHand  -0.25398 0.0180481 5.50724
RightShoulder  4.62582 7.79252 34.988
RightArm  -0.197227 -14.7474 35.5838
RightForeArm  8.67922 19.1433 4.95652
RightHand  -0.956123 2.96804 -13.5149
LeftUpLeg  6.94568 7.61407 -1.50561
LeftLeg  12.5812 13.9072 -2.51768
LeftFoot  -14.0034 0.107254 0.999041
LeftToes  1.06246e-005 4.65868e-005 -8.65513e-006
265
root  -55.8431 40.4427 3.79073 -127.012 -88.429 121.453
RightUpLeg  -13.4968 -11.4732 -10.6066
RightLeg  3.65294 -3.7617 3.13778
RightFoot  3.32228 -1.34162 10.5645
RightToes  0.000481921 0.542163 -0.142578
Spine  7.48007 -2.63152 -10.0838
Spine1  8.73331 -6.87496 12.7353
HEad  9.68039 -4.26331 9.08822
LeftShoulder1  10.4029 -14.362 -50.8481
LeftArm  -1.57955 9.54118 -27.435
LeftForeArm  44.8449 -9.74176 -7.36616
LeftHand  -0.25398 0.0180481 5.50724
RightShoulder  4.62501 7.71418 35.2615
RightArm  -0.355592 -13.8044 34.8181
RightForeArm  8.46761 18.8633 5.03365
RightHand  -0.989901 3.09864 -13.7708
LeftUpLeg  7.55714 7.73245 -1.35022
LeftLeg  12.7818 12.6899 -2.49548
LeftFoot  -14.6527 0.105141 0.593348
LeftToes  1.06246e-005 4.65868e-005 -8.65513e-006
266
root  -56.5082 40.4019 3.46114 -85.2975 -88.2264 80.1112
RightUpLeg  -12.5169 -11.2419 -10.9044
RightLeg  2.95313 -5.07235 3.22673
RightFoot  3.33145 -1.21658 9.618
RightToes  0.000481921 0.542163 -0.142578
Spine  6.72958 -2.33435 -9.73407
Spine1  9.09473 -6.3136 11.9582
HEad  8.90591 -5.21487 9.41228
LeftShoulder1  10.3974 -14.3212 -50.9353
LeftArm  -2.20397 12.4086 -27.0082
LeftForeArm  45.534 -8.43963 -7.45568
LeftHand  -0.25398 0.0180481 5.50724
RightShoulder  4.54891 7.55445 35.1694
RightArm  -0.993696 -13.1144 34.4282
RightForeArm  8.63908 18.4969 5.09642
RightHand  -0.973197 3.00913 -13.6803
LeftUpLeg  8.38168 7.80182 -1.10473
LeftLeg  12.4334 11.3362 -2.59345
LeftFoot  -14.96 0.0941281 0.136594
LeftToes  1.06246e-005 4.65868e-005 -8.65513e-006
